<svg xmlns="http://www.w3.org/2000/svg" width="390" height="844" viewBox="0 0 390 844" font-family="Helvetica, Arial, sans-serif">
  <rect width="390" height="844" fill="#F4F6FA"/>
  <rect width="390" height="132" fill="#fff"/>
  <text x="24" y="25" fill="#0A2A5E" font-size="13" font-weight="700">9:41</text>
  <circle cx="340" cy="20" r="5" fill="#0A2A5E"/>
  <rect x="352" y="14" width="22" height="12" rx="3" fill="#0A2A5E"/>
  <text x="24" y="78" fill="#8A94A6" font-size="11" font-weight="700" letter-spacing="1">PEOPLEFORPEOPLE</text>
  <text x="24" y="110" fill="#0A2A5E" font-size="24" font-weight="700">Mis misiones</text>

  <!-- chips -->
  <rect x="24" y="148" width="104" height="38" rx="19" fill="#0A2A5E"/>
  <text x="76" y="172" fill="#fff" font-size="13" font-weight="700" text-anchor="middle">Mis misiones</text>
  <rect x="138" y="148" width="84" height="38" rx="19" fill="#fff" stroke="#E1E6EF"/>
  <text x="180" y="172" fill="#0A2A5E" font-size="13" font-weight="700" text-anchor="middle">Cerca de mí</text>
  <rect x="232" y="148" width="78" height="38" rx="19" fill="#fff" stroke="#E1E6EF"/>
  <text x="271" y="172" fill="#0A2A5E" font-size="13" font-weight="700" text-anchor="middle">Historial</text>

  <!-- card 1 -->
  <rect x="22" y="210" width="6" height="228" rx="3" fill="#E8443A"/>
  <rect x="28" y="210" width="334" height="228" rx="14" fill="#fff" stroke="#EDF1F7"/>
  <rect x="44" y="232" width="54" height="22" rx="11" fill="#FDEBC8"/>
  <text x="71" y="247" fill="#8A5A00" font-size="10" font-weight="700" text-anchor="middle">ALTA</text>
  <text x="342" y="247" fill="#0A2A5E" font-size="10" font-weight="700" text-anchor="end">ACEPTADA</text>
  <text x="44" y="287" fill="#0A2A5E" font-size="17" font-weight="700">Reparto de agua y alimentos</text>
  <text x="44" y="312" fill="#5B6879" font-size="12">Cruz Roja · Polideportivo municipal</text>
  <circle cx="50" cy="336" r="4" fill="#F5A623"/>
  <text x="62" y="340" fill="#5B6879" font-size="12">Hoy, 17:30 · a 1,3 km</text>
  <circle cx="50" cy="360" r="4" fill="#0A2A5E"/>
  <text x="62" y="364" fill="#5B6879" font-size="12">6 de 8 plazas cubiertas</text>
  <rect x="44" y="388" width="144" height="36" rx="10" fill="#F5A623"/>
  <text x="116" y="411" fill="#0A2A5E" font-size="13" font-weight="700" text-anchor="middle">Cómo llegar</text>
  <rect x="200" y="388" width="142" height="36" rx="10" fill="#fff" stroke="#D8DFEA"/>
  <text x="271" y="411" fill="#0A2A5E" font-size="13" font-weight="700" text-anchor="middle">Abrir el chat</text>

  <!-- card 2 -->
  <rect x="22" y="456" width="6" height="192" rx="3" fill="#E0A400"/>
  <rect x="28" y="456" width="334" height="192" rx="14" fill="#fff" stroke="#EDF1F7"/>
  <rect x="44" y="478" width="62" height="22" rx="11" fill="#FDEBC8"/>
  <text x="75" y="493" fill="#8A5A00" font-size="10" font-weight="700" text-anchor="middle">MEDIA</text>
  <text x="44" y="533" fill="#0A2A5E" font-size="17" font-weight="700">Acompañamiento médico</text>
  <text x="44" y="558" fill="#5B6879" font-size="12">Asociación Vecinal · Centro de salud</text>
  <circle cx="50" cy="581" r="4" fill="#F5A623"/>
  <text x="62" y="585" fill="#5B6879" font-size="12">Mañana, 10:30 · a 420 m</text>
  <rect x="44" y="604" width="298" height="34" rx="10" fill="#E6EDF7"/>
  <text x="193" y="626" fill="#0A2A5E" font-size="13" font-weight="700" text-anchor="middle">Ver detalles de la misión</text>

  <!-- tab bar -->
  <line x1="0" y1="756" x2="390" y2="756" stroke="#E1E6EF"/>
  <g fill="#C3CAD6">
    <circle cx="39" cy="786" r="11"/><circle cx="116" cy="786" r="11"/>
    <circle cx="272" cy="786" r="11"/><circle cx="351" cy="786" r="11"/>
  </g>
  <circle cx="194" cy="786" r="11" fill="#0A2A5E"/>
  <g font-size="10" text-anchor="middle" fill="#8A94A6">
    <text x="39" y="815">Mapa</text><text x="116" y="815">Entidades</text>
    <text x="194" y="815" fill="#0A2A5E" font-weight="700">Misiones</text>
    <text x="272" y="815">Chat</text><text x="351" y="815">Perfil</text>
  </g>
</svg>
